:FULLY-SPECIFIED
:FORCE-ALL-JOINTS-BE-3DOF
:DEGREES
611
root 5.98893 16.2775 -2.89203 3.66837 69.3865 -3.32291
lfemur -18.882 17.7307 -20.0822
ltibia 49.554 -0 0
lfoot -26.1881 10.4947 -0.665131
ltoes -0.531294 0 0
rfemur -45.1433 -11.9847 19.7324
rtibia 53.904 -0 0
rfoot 0.447009 9.01666 0.750502
rtoes -21.6161 0 0
lowerback 3.02544 -2.30327 -5.44342
upperback 1.11397 -3.17813 1.62102
thorax -0.242772 -1.61727 4.8011
lowerneck -6.45956 -11.4318 -2.94593
upperneck 11.4077 -15.808 6.29643
head 5.32416 -7.47854 1.25613
lclavicle 2.49896e-14 -4.71963e-15 -7.97405e-32
lhumerus -21.845 -35.3863 87.7576
lradius 58.8256 -0 0
lwrist 25.2852 0 0
lhand -17.2395 -1.95901 0.015938
lfingers 7.12502 -0 0
lthumb 9.00362 27.8149 0.0127804
rclavicle 2.49896e-14 -4.71963e-15 -7.97405e-32
rhumerus 12.3298 9.56356 -73.2686
rradius 121.72 -0 0
rwrist -42.8216 0 0
rhand -27.5115 -25.2229 -0.019785
rfingers 7.12502 -0 0
rthumb -0.914072 -55.2027 -0.0189941
612
root 5.98024 16.2665 -2.85231 4.31565 68.1832 -2.78262
lfemur -18.9674 17.9377 -20.1832
ltibia 49.9082 -0 0
lfoot -25.7546 10.2807 -0.708359
ltoes -0.575001 0 0
rfemur -45.2462 -12.0966 19.9267
rtibia 54.2292 -0 0
rfoot 0.00842817 8.74587 0.800817
rtoes -21.2552 0 0
lowerback 2.95991 -2.37457 -5.36895
upperback 1.06508 -3.26747 1.61751
thorax -0.25595 -1.66121 4.75434
lowerneck -6.5296 -11.3253 -2.88988
upperneck 11.2554 -15.6525 6.247
head 5.27869 -7.408 1.2437
lclavicle 2.50202e-14 -4.79368e-15 -1.0184e-31
lhumerus -21.7654 -35.9389 87.9822
lradius 59.2529 -0 0
lwrist 25.3209 0 0
lhand -17.1364 -1.91834 0.0167666
lfingers 7.12502 -0 0
lthumb 9.10309 27.8504 0.0134192
rclavicle 2.50202e-14 -4.79368e-15 -1.0184e-31
rhumerus 11.3825 9.09665 -73.2285
rradius 120.8 -0 0
rwrist -42.4977 0 0
rhand -27.4986 -25.5907 -0.0214341
rfingers 7.12502 -0 0
rthumb -0.901599 -55.5707 -0.0205739
613
root 5.97137 16.2552 -2.81178 4.9139 66.9527 -2.2942
lfemur -19.0548 18.1489 -20.2876
ltibia 50.2693 -0 0
lfoot -25.3116 10.0616 -0.750835
ltoes -0.620186 0 0
rfemur -45.3525 -12.2107 20.1257
rtibia 54.5628 -0 0
rfoot -0.440379 8.46828 0.850127
rtoes -20.8863 0 0
lowerback 2.89284 -2.44736 -5.29271
upperback 1.01515 -3.35877 1.6141
thorax -0.269349 -1.70613 4.70661
lowerneck -6.60106 -11.2165 -2.83279
upperneck 11.0996 -15.4937 6.19604
head 5.2322 -7.33596 1.23093
lclavicle 2.50434e-14 -4.87217e-15 -1.25337e-31
lhumerus -21.6871 -36.5036 88.2138
lradius 59.6895 -0 0
lwrist 25.3573 0 0
lhand -17.031 -1.8767 0.0175365
lfingers 7.12502 -0 0
lthumb 9.20479 27.8868 0.0140069
rclavicle 2.50434e-14 -4.87217e-15 -1.25337e-31
rhumerus 10.4153 8.62068 -73.1804
rradius 119.86 -0 0
rwrist -42.1667 0 0
rhand -27.4852 -25.9664 -0.0230442
rfingers 7.12502 -0 0
rthumb -0.888653 -55.9467 -0.0221156
614
root 5.96234 16.2437 -2.77047 5.46857 65.6962 -1.8521
lfemur -19.1442 18.3642 -20.3951
ltibia 50.6372 -0 0
lfoot -24.8596 9.83763 -0.792414
ltoes -0.666668 0 0
rfemur -45.462 -12.327 20.3291
rtibia 54.9042 -0 0
rfoot -0.898841 8.1842 0.898219
rtoes -20.5096 0 0
lowerback 2.82432 -2.52154 -5.21477
upperback 0.964235 -3.45194 1.61077
thorax -0.282962 -1.75198 4.65797
lowerneck -6.67389 -11.1053 -2.77469
upperneck 10.9406 -15.3318 6.14358
head 5.18475 -7.26248 1.21782
lclavicle 2.50594e-14 -4.95479e-15 -1.50116e-31
lhumerus -21.6102 -37.08 88.4517
lradius 60.135 -0 0
lwrist 25.3944 0 0
lhand -16.9233 -1.83415 0.0182422
lfingers 7.12502 -0 0
lthumb 9.30858 27.9239 0.0145391
rclavicle 2.50594e-14 -4.95479e-15 -1.50116e-31
rhumerus 9.42905 8.13622 -73.1235
rradius 118.901 -0 0
rwrist -41.829 0 0
rhand -27.4713 -26.3498 -0.0246028
rfingers 7.12502 -0 0
rthumb -0.875279 -56.3303 -0.0236071
615
root 5.95314 16.2319 -2.72839 5.98443 64.4151 -1.45151
lfemur -19.2356 18.5831 -20.5055
ltibia 51.0117 -0 0
lfoot -24.3989 9.60909 -0.832952
ltoes -0.714266 0 0
rfemur -45.5743 -12.4453 20.5366
rtibia 55.2528 -0 0
rfoot -1.36638 7.89395 0.944889
rtoes -20.1256 0 0
lowerback 2.75441 -2.59702 -5.13521
upperback 0.912378 -3.54687 1.60751
thorax -0.296784 -1.79871 4.60844
lowerneck -6.74793 -10.992 -2.71569
upperneck 10.7785 -15.1671 6.08965
head 5.13637 -7.18765 1.2044
lclavicle 2.50682e-14 -5.04127e-15 -1.76063e-31
lhumerus -21.5349 -37.6675 88.6956
lradius 60.589 -0 0
lwrist 25.4322 0 0
lhand -16.8137 -1.79075 0.0188788
lfingers 7.12502 -0 0
lthumb 9.41433 27.9618 0.0150118
rclavicle 2.50682e-14 -5.04127e-15 -1.76063e-31
rhumerus 8.4247 7.64386 -73.0574
rradius 117.923 -0 0
rwrist -41.4847 0 0
rhand -27.4571 -26.7403 -0.0260975
rfingers 7.12502 -0 0
rthumb -0.86152 -56.7211 -0.0250365
616
root 5.9438 16.2199 -2.68558 6.46564 63.1105 -1.08821
lfemur -19.3291 18.8054 -20.6184
ltibia 51.3927 -0 0
lfoot -23.93 9.37616 -0.872313
ltoes -0.762798 0 0
rfemur -45.6892 -12.5652 20.7481
rtibia 55.6079 -0 0
rfoot -1.84242 7.59786 0.989938
rtoes -19.7346 0 0
lowerback 2.6832 -2.67374 -5.05411
upperback 0.859626 -3.64347 1.60432
thorax -0.310809 -1.84627 4.55806
lowerneck -6.82312 -10.8767 -2.65584
upperneck 10.6134 -14.9996 6.0343
head 5.08711 -7.11151 1.19067
lclavicle 2.50699e-14 -5.13131e-15 -2.03059e-31
lhumerus -21.4611 -38.2656 88.945
lradius 61.0509 -0 0
lwrist 25.4707 0 0
lhand -16.7022 -1.74659 0.0194417
lfingers 7.12502 -0 0
lthumb 9.52191 28.0004 0.0154211
rclavicle 2.50699e-14 -5.13131e-15 -2.03059e-31
rhumerus 7.40315 7.14423 -72.9815
rradius 116.928 -0 0
rwrist -41.1342 0 0
rhand -27.4425 -27.1377 -0.0275169
rfingers 7.12502 -0 0
rthumb -0.847419 -57.1187 -0.0263929
617
root 5.93431 16.2077 -2.64205 6.91582 61.7835 -0.758499
lfemur -19.4248 19.0308 -20.7335
ltibia 51.78 -0 0
lfoot -23.4532 9.13904 -0.910365
ltoes -0.812084 0 0
rfemur -45.8064 -12.6867 20.9632
rtibia 55.969 -0 0
rfoot -2.32638 7.29625 1.03318
rtoes -19.337 0 0
lowerback 2.61074 -2.75159 -4.97154
upperback 0.806028 -3.74163 1.60119
thorax -0.32503 -1.89462 4.50687
lowerneck -6.89936 -10.7595 -2.59521
upperneck 10.4456 -14.8296 5.97756
head 5.03702 -7.03416 1.17664
lclavicle 2.50645e-14 -5.22463e-15 -2.30986e-31
lhumerus -21.3888 -38.8736 89.1995
lradius 61.5204 -0 0
lwrist 25.5098 0 0
lhand -16.5889 -1.70172 0.0199266
lfingers 7.12502 -0 0
lthumb 9.63117 28.0396 0.0157637
rclavicle 2.50645e-14 -5.22463e-15 -2.30986e-31
rhumerus 6.36527 6.63796 -72.8953
rradius 115.917 -0 0
rwrist -40.7777 0 0
rhand -27.4276 -27.5415 -0.0288502
rfingers 7.12502 -0 0
rthumb -0.83302 -57.5227 -0.0276658
618
root 5.92469 16.1953 -2.59785 7.33818 60.4353 -0.45914
lfemur -19.5226 19.259 -20.8507
ltibia 52.1736 -0 0
lfoot -22.9689 8.89794 -0.946979
ltoes -0.861942 0 0
rfemur -45.9257 -12.8096 21.1817
rtibia 56.3356 -0 0
rfoot -2.81768 6.98947 1.07444
rtoes -18.9331 0 0
lowerback 2.53712 -2.8305 -4.88759
upperback 0.751631 -3.84126 1.5981
thorax -0.339444 -1.94369 4.4549
lowerneck -6.97656 -10.6404 -2.53385
upperneck 10.2751 -14.6572 5.91947
head 4.98614 -6.95565 1.16235
lclavicle 2.50521e-14 -5.32093e-15 -2.59724e-31
lhumerus -21.3182 -39.491 89.4587
lradius 61.997 -0 0
lwrist 25.5495 0 0
lhand -16.474 -1.65621 0.0203297
lfingers 7.12502 -0 0
lthumb 9.74197 28.0794 0.0160365
rclavicle 2.50521e-14 -5.32093e-15 -2.59724e-31
rhumerus 5.31193 6.12569 -72.7982
rradius 114.89 -0 0
rwrist -40.4156 0 0
rhand -27.4124 -27.9513 -0.0300874
rfingers 7.12502 -0 0
rthumb -0.818368 -57.9328 -0.0288456
619
root 5.91494 16.1828 -2.55298 7.7355 59.067 -0.187276
lfemur -19.6226 19.4897 -20.9697
ltibia 52.5733 -0 0
lfoot -22.4776 8.65309 -0.982034
ltoes -0.912191 0 0
rfemur -46.0468 -12.9336 21.4033
rtibia 56.7069 -0 0
rfoot -3.31573 6.67783 1.11353
rtoes -18.5233 0 0
lowerback 2.46242 -2.91037 -4.80233
upperback 0.696484 -3.94226 1.59505
thorax -0.354044 -1.99345 4.40219
lowerneck -7.05462 -10.5195 -2.47184
upperneck 10.1022 -14.4825 5.86008
head 4.93452 -6.87606 1.14778
lclavicle 2.50327e-14 -5.41993e-15 -2.89154e-31
lhumerus -21.2492 -40.1172 89.7219
lradius 62.4803 -0 0
lwrist 25.5897 0 0
lhand -16.3577 -1.61014 0.0206476
lfingers 7.12502 -0 0
lthumb 9.85418 28.1196 0.0162368
rclavicle 2.50327e-14 -5.41993e-15 -2.89154e-31
rhumerus 4.24397 5.60809 -72.6898
rradius 113.85 -0 0
rwrist -40.0481 0 0
rhand -27.397 -28.3667 -0.0312191
rfingers 7.12502 -0 0
rthumb -0.803506 -58.3485 -0.0299234
620
root 5.90507 16.1701 -2.50747 8.11026 57.6797 0.0596132
lfemur -19.7248 19.7225 -21.0902
ltibia 52.9789 -0 0
lfoot -21.9797 8.40471 -1.01541
ltoes -0.962649 0 0
rfemur -46.1695 -13.0586 21.6278
rtibia 57.0824 -0 0
rfoot -3.81995 6.36168 1.15032
rtoes -18.108 0 0
lowerback 2.3867 -2.99113 -4.71584
upperback 0.640635 -4.04452 1.59203
thorax -0.368826 -2.04385 4.34877
lowerneck -7.13347 -10.397 -2.40923
upperneck 9.92693 -14.3058 5.79944
head 4.8822 -6.79547 1.13297
lclavicle 2.50064e-14 -5.52134e-15 -3.19153e-31
lhumerus -21.1819 -40.7516 89.9889
lradius 62.9698 -0 0
lwrist 25.6306 0 0
lhand -16.24 -1.56356 0.0208775
lfingers 7.12502 -0 0
lthumb 9.96766 28.1603 0.0163623
rclavicle 2.50064e-14 -5.52134e-15 -3.19153e-31
rhumerus 3.16222 5.08585 -72.5698
rradius 112.796 -0 0
rwrist -39.6756 0 0
rhand -27.3815 -28.7874 -0.0322368
rfingers 7.12502 -0 0
rthumb -0.788478 -58.7694 -0.0308909
621
root 5.89508 16.1573 -2.46136 8.46464 56.2747 0.28376
lfemur -19.8293 19.9573 -21.2119
ltibia 53.3904 -0 0
lfoot -21.4754 8.15301 -1.04701
ltoes -1.01314 0 0
rfemur -46.2934 -13.1844 21.8549
rtibia 57.4615 -0 0
rfoot -4.32975 6.04137 1.18464
rtoes -17.6875 0 0
lowerback 2.31003 -3.07273 -4.62816
upperback 0.584132 -4.14796 1.58903
thorax -0.383783 -2.09483 4.29468
lowerneck -7.213 -10.273 -2.34609
upperneck 9.74953 -14.1271 5.73758
head 4.82924 -6.71393 1.11793
lclavicle 2.49732e-14 -5.62487e-15 -3.496e-31
lhumerus -21.1162 -41.3937 90.2591
lradius 63.465 -0 0
lwrist 25.672 0 0
lhand -16.1212 -1.51654 0.021017
lfingers 7.12502 -0 0
lthumb 10.0823 28.2013 0.0164112
rclavicle 2.49732e-14 -5.62487e-15 -3.496e-31
rhumerus 2.06749 4.55966 -72.4376
rradius 111.731 -0 0
rwrist -39.2982 0 0
rhand -27.3658 -29.2129 -0.0331329
rfingers 7.12502 -0 0
rthumb -0.77333 -59.1952 -0.0317408
